<svg version="1" xmlns="http://www.w3.org/2000/svg" width="1333.333" height="1333.333" viewBox="0 0 1000.000000 1000.000000"><path d="M474.9 14.4c-.2.2-5.9.7-12.6 1-6.7.4-12.8.8-13.5 1.1-.7.2-4 .6-7.3.9-3.3.3-7.1.8-8.5 1-1.4.3-6.1 1-10.5 1.6-4.4.7-8.9 1.4-10 1.6-9.2 1.8-12.3 2.4-14 2.8-1.1.2-5.4 1.2-9.5 2.1-52.7 11.8-109.9 36.4-157 67.4-10.8 7.1-36.1 25.7-40.5 29.8-1.1 1-3.3 2.9-5 4.1-8.7 6.8-35.5 32.5-46.6 44.8-37 41.1-67.6 88.9-87.4 136.4-2.6 6.3-5.4 13-6.2 14.9-5.4 12.3-17.2 52.4-21.9 74.4-3.1 14.7-5.6 30.2-6.9 43.2-.3 3.3-.8 7.1-1 8.4-2.3 13.5-2.3 80.5-.1 94.1.2 1.4.7 5.2 1 8.5 1 10 2.2 18.5 3.1 22.9.2 1.2.7 3.8 1 5.9.4 3.3 2.8 15.2 4.1 21 16 69.7 44 130.2 86.3 186.2 6.3 8.2 11.7 15.2 12 15.5.3.3 1.9 2.1 3.5 4 23.3 28.6 59.9 62.2 92.5 84.8 5.3 3.6 9.8 7 9.9 7.4.2.4.8.8 1.3.8.6 0 3.6 1.7 6.7 3.8 3.1 2.1 9.1 5.8 13.2 8.2 4.1 2.3 9.1 5.3 11 6.5 6.8 4.2 40.7 20.5 54.3 26 21.6 8.7 55.2 19.4 72.7 23 .8.2 3.5.8 6 1.4 14 3.2 31.7 6 49.5 8 19.4 2.2 28 2.6 54.5 2.6 24.2 0 42-.7 50-2 1.4-.2 5-.6 8.2-.9 34.2-3.3 85.8-16.5 123.6-31.7 13.1-5.3 43.1-19.7 56.1-27 10-5.5 36.2-22 41.6-26.2.6-.4 6.6-4.9 13.5-10.1 28.7-21.5 60.9-52.4 81.1-77.6 2.8-3.6 5.4-6.7 5.8-7 .3-.3 3.8-4.8 7.7-10 34.2-45.8 58.3-92.9 75.3-146.5 3.8-12.3 9.3-32.4 10.4-39 .3-1.7.8-3.9 1-5 .3-1.1.8-3.1 1.1-4.5.3-1.4.8-3.9 1.1-5.5 1-6.1 2.5-15.1 3-19 .3-2.2.8-5.1 1-6.5.3-1.4.7-5.1 1-8.3.4-3.2.8-6.7 1-7.8 1.6-8.2 2.4-70.5 1.1-83.9-.3-3-.8-8.7-1.1-12.5-.4-3.9-.8-8.1-1-9.5-1.9-13.7-3.8-25.7-5-31.5-.8-3.8-1.7-8.6-2-10.5-1.4-8-8.7-35.5-13-49-9.8-30.1-24.8-64.2-40-90.5-3.2-5.5-6.3-10.9-6.9-11.9-.6-1.1-1.4-2.5-1.8-3-.5-.6-4-6.1-7.9-12.1-3.9-6.1-7.6-11.2-8-11.3-.5-.2-.9-.8-.9-1.3 0-1.8-23.5-31.5-35.6-44.9-14.4-15.9-41-41.2-53.9-51.1-1.7-1.3-3.2-2.6-3.5-3-1.6-2-37.1-27.2-44.2-31.4-.9-.6-6.6-3.9-12.5-7.5-15.2-9.1-44.3-23.6-60.8-30.4-18.7-7.7-45.4-16.5-65.1-21.5-16.9-4.3-20-5-37.9-8.1-9.7-1.6-13.3-2.2-24.5-3.6-1.4-.1-5.9-.6-10-1-4.1-.3-8.4-.8-9.5-1.1-2.4-.6-62-1.4-62.6-.9z"/></svg>